<svg width="22" height="22" viewBox="0 0 22 22" fill="none" xmlns="http://www.w3.org/2000/svg">
<path d="M20.1804 1.23076C19.3974 0.778597 18.3926 1.0479 17.9406 1.83093L15.7057 5.70192H10.886C10.6702 5.70192 10.4953 5.87685 10.4953 6.09256C10.4953 6.30827 10.6702 6.48319 10.886 6.48319H15.2547L13.6328 9.29233H4.51579C4.30004 9.29233 4.12516 9.46725 4.12516 9.68296C4.12516 9.89871 4.30004 10.0736 4.51579 10.0736H13.1817L12.2796 11.6361H4.51579C4.30004 11.6361 4.12516 11.8111 4.12516 12.0268C4.12516 12.2425 4.30004 12.4174 4.51579 12.4174H12.118L11.9497 13.9799H4.51579C4.30004 13.9799 4.12516 14.1549 4.12516 14.3706C4.12516 14.5863 4.30004 14.7612 4.51579 14.7612H11.8655L11.8447 14.9542C11.8282 15.1079 11.9039 15.257 12.0378 15.3343C12.0984 15.3693 12.1658 15.3866 12.2331 15.3866C12.3143 15.3866 12.3952 15.3613 12.4635 15.3114L14.9578 13.4893C15.0017 13.4572 15.0384 13.4163 15.0656 13.3692L18.1098 8.09659V15.6682C18.1098 16.5434 17.3977 17.2555 16.5224 17.2555H7.46942C7.32985 17.2555 7.2009 17.33 7.13113 17.4509L5.7652 19.8167L4.39927 17.4509C4.3295 17.33 4.20055 17.2555 4.06098 17.2555H3.36865C2.49336 17.2555 1.78127 16.5434 1.78127 15.6682V8.07058C1.78127 7.19532 2.49336 6.48319 3.36865 6.48319H7.37028C7.58603 6.48319 7.76091 6.30827 7.76091 6.09256C7.76091 5.87681 7.58603 5.70192 7.37028 5.70192H3.36865C2.06257 5.70192 1 6.76449 1 8.07058V15.6682C1 16.9742 2.06257 18.0368 3.36865 18.0368H3.83542L5.42691 20.7933C5.49668 20.9142 5.62563 20.9886 5.7652 20.9886C5.90477 20.9886 6.03372 20.9142 6.10349 20.7933L7.69497 18.0368H16.5225C17.8286 18.0368 18.8911 16.9742 18.8911 15.6682V8.07058C18.8911 7.73573 18.8201 7.40494 18.6843 7.10165L20.7807 3.47062C21.2327 2.68763 20.9635 1.68284 20.1804 1.23076ZM19.7898 1.90734C20.1997 2.14402 20.3407 2.67005 20.104 3.07998L19.8808 3.46659L18.394 2.60817L18.6172 2.22156C18.8539 1.81167 19.3799 1.67077 19.7898 1.90734ZM12.8881 12.563L14.0126 13.2123L12.7162 14.1594L12.8881 12.563ZM14.5844 12.6403L13.0976 11.7818L18.0034 3.28475L19.4902 4.14317L14.5844 12.6403Z" fill="white" stroke="white" stroke-width="0.4" stroke-linejoin="round"/>
<path d="M9.12778 6.48322C9.23052 6.48322 9.3313 6.44142 9.40435 6.36877C9.477 6.29611 9.5188 6.19533 9.5188 6.09259C9.5188 5.98986 9.477 5.88908 9.40435 5.81642C9.3313 5.7438 9.23091 5.70197 9.12778 5.70197C9.02505 5.70197 8.92427 5.74376 8.85161 5.81642C8.77895 5.88908 8.73755 5.98986 8.73755 6.09259C8.73755 6.19533 8.77892 6.29611 8.85161 6.36877C8.92466 6.44142 9.02505 6.48322 9.12778 6.48322Z" fill="white" stroke="white" stroke-width="0.4" stroke-linejoin="round"/>
</svg>
