<svg width="18" height="18" viewBox="0 0 18 18" fill="none" xmlns="http://www.w3.org/2000/svg">
<path d="M18 9C18 4.284 14.3719 0.41775 9.75525 0.03375C9.75338 0.032625 9.75187 0.031125 9.75 0.030375V0.03375C9.5025 0.013125 9.25275 0 9 0C8.74725 0 8.4975 0.013125 8.25 0.033375V0.030375C8.24813 0.0315 8.24662 0.033 8.24475 0.034125C3.62813 0.41775 0 4.284 0 9C0 13.716 3.62775 17.5823 8.24475 17.9659C8.24662 17.9674 8.24813 17.9689 8.25 17.97V17.9662C8.4975 17.9869 8.74725 18 9 18C9.25275 18 9.5025 17.9869 9.75 17.9662V17.97C9.75187 17.9689 9.75375 17.9674 9.75562 17.9659C14.3719 17.5823 18 13.716 18 9ZM1.5 9C1.5 8.478 1.554 7.96875 1.65562 7.47675H3.96338C3.9015 7.974 3.86737 8.48213 3.86737 9C3.86737 9.78187 3.94387 10.5416 4.0815 11.2733H1.85287C1.62487 10.5559 1.5 9.79275 1.5 9ZM5.29875 9C5.29875 8.47987 5.3385 7.971 5.41275 7.47675H8.25V11.2736H5.55638C5.39025 10.5491 5.29875 9.78788 5.29875 9ZM12.2426 5.97675H9.75V2.06437C10.8705 3.04163 11.7454 4.39838 12.2426 5.97675ZM8.25 2.06437V5.97638H5.75737C6.25462 4.39838 7.1295 3.04163 8.25 2.06437ZM8.25 12.7733V15.9352C7.31175 15.117 6.54787 14.0314 6.0315 12.7733H8.25ZM9.75 15.9352V12.7733H11.9685C11.4521 14.0314 10.6882 15.117 9.75 15.9352ZM9.75 11.2733V7.47675H12.5873C12.6615 7.97137 12.7013 8.48025 12.7013 9C12.7013 9.78788 12.6097 10.5491 12.4432 11.2733H9.75ZM14.0366 7.47675H16.3447C16.446 7.96875 16.5 8.478 16.5 9C16.5 9.79275 16.3751 10.5559 16.1471 11.2733H13.9189C14.0569 10.5416 14.133 9.7815 14.133 9C14.133 8.48213 14.0985 7.974 14.0366 7.47675ZM15.8606 5.97675H13.7509C13.3751 4.51237 12.7369 3.18675 11.8973 2.08125C13.6661 2.823 15.087 4.22437 15.8606 5.97675ZM6.10275 2.08125C5.26312 3.18638 4.62488 4.51237 4.24913 5.97675H2.13975C2.913 4.22437 4.33388 2.823 6.10275 2.08125ZM2.52562 12.7733H4.46887C4.854 13.941 5.40937 15.0056 6.10312 15.9188C4.59487 15.2869 3.34313 14.1728 2.52562 12.7733ZM11.8973 15.9188C12.591 15.0056 13.146 13.9414 13.5311 12.7733H15.4744C14.6569 14.1728 13.4047 15.2869 11.8973 15.9188Z" fill="white"/>
</svg>
