<?xml version="1.0" encoding="UTF-8"?> <svg xmlns="http://www.w3.org/2000/svg" width="129" height="41" viewBox="0 0 129 41" fill="none"><path fill-rule="evenodd" clip-rule="evenodd" d="M5.92846 2.84226C9.83151 2.24746 12.6315 6.83846 9.71642 9.81982C7.09823 12.4973 2.36328 10.5471 2.36328 6.8763C2.36328 4.58316 3.75969 3.17279 5.92846 2.84226Z" fill="#004D9B"></path><path fill-rule="evenodd" clip-rule="evenodd" d="M32.221 8.40256C28.2849 14.4056 24.1448 20.3389 20.0775 26.2831C18.7275 28.2556 17.6542 30.4513 15.9556 32.1699C14.2861 29.5516 12.4438 27.1029 10.8306 24.4296C11.9257 22.9572 12.7347 21.2048 13.95 19.8502C14.5461 21.12 15.4129 22.1254 16.0668 23.3391C19.4743 18.4967 22.4405 13.2226 25.8707 8.4024C27.9875 8.40256 30.1042 8.40256 32.221 8.40256Z" fill="#52AF3C"></path><path fill-rule="evenodd" clip-rule="evenodd" d="M9.49366 13.0907C10.7087 14.8817 11.8141 16.7799 13.0585 18.542C12.1516 20.2347 11.0494 21.7358 10.0506 23.3392C9.61548 22.9293 9.44486 22.2603 8.93654 21.9219C8.93654 27.1917 8.93654 32.461 8.93654 37.7305C7.11703 37.7305 5.2972 37.7305 3.47754 37.7305C3.47754 29.5172 3.47754 21.304 3.47754 13.0909C5.48307 13.0907 7.48844 13.0907 9.49366 13.0907Z" fill="#004D9B"></path><path fill-rule="evenodd" clip-rule="evenodd" d="M28.6557 15.9251C28.9158 22.9752 28.693 30.4983 28.7673 37.7302C26.9104 37.7302 25.0535 37.7302 23.1967 37.7302C23.1967 35.4038 23.1967 33.1777 23.1967 30.9706C23.1967 28.7387 22.7552 26.2802 23.1967 24.2111C23.4452 23.0462 25.0414 21.3937 25.8705 20.1772C27.0094 18.5059 27.8391 17.1946 28.6557 15.9251Z" fill="#004D9B"></path><path fill-rule="evenodd" clip-rule="evenodd" d="M42.3591 21.0495C43.8562 20.6238 44.6038 21.4806 44.5873 22.576C44.5582 24.5044 40.8996 24.9844 41.2452 22.2486C41.3001 21.8129 41.5843 21.2696 42.3591 21.0495Z" fill="#52AF3C"></path><path fill-rule="evenodd" clip-rule="evenodd" d="M56.2849 28.0273C57.881 25.7369 59.3148 23.2875 60.8526 20.9403C62.0781 20.9403 63.3037 20.9403 64.5292 20.9403C64.5292 26.5367 64.5292 32.1335 64.5292 37.7303C63.3037 37.7303 62.0781 37.7303 60.8526 37.7303C60.8526 34.2415 60.8526 30.7529 60.8526 27.2639C59.2843 28.9633 57.9699 31.8568 56.1735 33.6964C54.7326 31.4726 53.3245 29.2163 51.7172 27.1552C51.7172 30.6802 51.7172 34.2052 51.7172 37.7305C50.529 37.7305 49.3406 37.7305 48.1523 37.7305C48.1523 32.1336 48.1523 26.5374 48.1523 20.9405C49.5178 21.1947 50.5498 20.5856 51.606 20.9405C52.3751 21.1991 53.5942 23.7064 54.0569 24.4297C54.9769 25.8677 55.6594 26.9825 56.2849 28.0273Z" fill="#004D9B"></path><path fill-rule="evenodd" clip-rule="evenodd" d="M91.8244 20.9404C93.0124 20.9404 94.2012 20.9404 95.3891 20.9404C95.3891 23.7388 95.3891 26.5368 95.3891 29.335C96.8174 28.2979 98.2665 26.3361 99.7342 24.9744C101.071 24.9744 102.408 24.9744 103.745 24.9744C103.815 25.3764 103.206 25.7986 102.854 26.174C101.723 27.377 100.201 28.7647 99.0656 29.9897C100.678 32.627 102.439 35.1192 104.19 37.6214C102.881 37.5766 101.302 38.0703 100.291 37.7305C99.5069 37.4669 98.8857 35.8525 98.3973 35.1139C97.7074 34.0714 97.0351 33.237 96.6147 32.4975C94.935 32.9979 95.4515 35.6476 95.3889 37.7305C94.201 37.7305 93.0123 37.7305 91.8242 37.7305C91.8244 32.1335 91.8244 26.5371 91.8244 20.9404Z" fill="#004D9B"></path><path fill-rule="evenodd" clip-rule="evenodd" d="M120.567 20.9404C121.755 20.9404 122.944 20.9404 124.132 20.9404C124.132 22.2849 124.132 23.6297 124.132 24.9742C125.098 24.9742 126.063 24.9742 127.029 24.9742C127.029 25.9917 127.029 27.0096 127.029 28.0272C126.101 28.0272 125.172 28.0272 124.243 28.0272C124.105 29.8708 123.946 32.678 124.355 34.3506C125.076 34.9299 126.297 34.5613 127.029 34.2415C127.029 35.1866 127.029 36.1314 127.029 37.0763C126.257 37.3018 125.835 37.6361 125.134 37.7303C119.515 38.487 120.609 33.0952 120.567 28.1359C120.303 27.8853 119.567 28.0969 119.119 28.0274C119.119 27.0097 119.119 25.9919 119.119 24.9744C119.601 24.9744 120.084 24.9744 120.567 24.9744C120.567 23.6297 120.567 22.2849 120.567 20.9404Z" fill="#004D9B"></path><path fill-rule="evenodd" clip-rule="evenodd" d="M44.5869 24.9742C44.5869 29.2262 44.5869 33.4784 44.5869 37.7302C43.473 37.7302 42.3588 37.7302 41.2448 37.7302C41.319 33.5143 41.0964 29.0084 41.3561 24.9742C42.4331 24.9742 43.5099 24.9742 44.5869 24.9742Z" fill="#52AF3C"></path><path fill-rule="evenodd" clip-rule="evenodd" d="M78.9009 37.7304C77.7124 37.7304 76.5243 37.7304 75.3358 37.7304C75.3358 37.2943 75.3358 36.8581 75.3358 36.4221C73.856 37.7374 70.2032 38.4712 68.3173 36.749C66.9071 35.4616 66.7106 32.6517 68.2057 31.1886C69.6593 29.7667 72.9177 29.6262 75.3358 30.4256C75.6028 27.1672 71.1184 27.9844 69.0969 28.6814C68.9359 27.6761 68.5033 26.9367 68.3174 25.9558C71.1308 24.7279 75.6669 24.452 77.5641 26.3919C79.8841 28.7646 78.5014 33.4936 78.9009 37.7304ZM70.7679 33.1512C70.3376 36.5942 76.1385 35.5622 75.4472 32.6065C74.1726 31.836 71.4074 31.835 70.7679 33.1512Z" fill="#004D9B"></path><path fill-rule="evenodd" clip-rule="evenodd" d="M85.5852 24.9742C85.5852 25.7372 85.5852 26.5008 85.5852 27.2638C86.3275 26.3911 87.2471 24.7475 89.4842 24.9742C89.4842 26.1739 89.4842 27.3728 89.4842 28.5719C84.8502 28.3617 85.5638 33.3848 85.5852 37.7302C84.3968 37.7302 83.2086 37.7302 82.02 37.7302C82.02 33.4784 82.02 29.2262 82.02 24.9742C83.2086 24.9742 84.3966 24.9742 85.5852 24.9742Z" fill="#004D9B"></path><path fill-rule="evenodd" clip-rule="evenodd" d="M117.336 32.6064C114.477 32.6064 111.617 32.6064 108.758 32.6064C108.915 35.3879 113.347 35.3636 114.774 33.6963C115.357 34.3613 116.216 34.7561 116.668 35.5498C115.251 37.0302 113.68 38.0116 110.875 37.7304C107.685 37.4108 105.435 35.0977 105.193 32.0608C104.767 26.7166 110.93 22.5967 115.22 26.283C116.75 27.5978 117.39 29.5533 117.336 32.6064ZM108.758 30.3164C110.466 30.3164 112.174 30.3164 113.883 30.3164C113.905 27.1605 108.716 27.0796 108.758 30.3164Z" fill="#004D9B"></path></svg> 