<svg width="129" height="41" viewBox="0 0 129 41" fill="none" xmlns="http://www.w3.org/2000/svg">
<path fill-rule="evenodd" clip-rule="evenodd" d="M5.92864 2.84232C9.83169 2.24752 12.6317 6.83852 9.71661 9.81988C7.09842 12.4974 2.36346 10.5472 2.36346 6.87636C2.36346 4.58322 3.75987 3.17285 5.92864 2.84232Z" fill="white"/>
<path fill-rule="evenodd" clip-rule="evenodd" d="M32.2208 8.4025C28.2847 14.4056 24.1446 20.3388 20.0773 26.283C18.7273 28.2555 17.654 30.4513 15.9554 32.1699C14.2859 29.5516 12.4436 27.1028 10.8304 24.4295C11.9255 22.9571 12.7345 21.2048 13.9498 19.8501C14.546 21.12 15.4127 22.1254 16.0666 23.339C19.4742 18.4966 22.4403 13.2226 25.8705 8.40234C27.9873 8.4025 30.1041 8.4025 32.2208 8.4025Z" fill="white"/>
<path fill-rule="evenodd" clip-rule="evenodd" d="M9.49353 13.0908C10.7086 14.8818 11.814 16.78 13.0584 18.5421C12.1515 20.2348 11.0493 21.7359 10.0505 23.3393C9.61536 22.9295 9.44474 22.2604 8.93641 21.922C8.93641 27.1918 8.93641 32.4611 8.93641 37.7306C7.11691 37.7306 5.29708 37.7306 3.47742 37.7306C3.47742 29.5173 3.47742 21.3041 3.47742 13.091C5.48295 13.0908 7.48832 13.0908 9.49353 13.0908Z" fill="white"/>
<path fill-rule="evenodd" clip-rule="evenodd" d="M28.6556 15.925C28.9156 22.9751 28.6928 30.4982 28.7672 37.7301C26.9103 37.7301 25.0534 37.7301 23.1966 37.7301C23.1966 35.4037 23.1966 33.1776 23.1966 30.9705C23.1966 28.7386 22.7551 26.2801 23.1966 24.2111C23.4451 23.0461 25.0413 21.3936 25.8703 20.1772C27.0093 18.5059 27.839 17.1946 28.6556 15.925Z" fill="white"/>
<path fill-rule="evenodd" clip-rule="evenodd" d="M42.3589 21.0495C43.8559 20.6238 44.6035 21.4807 44.587 22.5761C44.558 24.5045 40.8994 24.9845 41.2449 22.2487C41.2998 21.813 41.5841 21.2697 42.3589 21.0495Z" fill="white"/>
<path fill-rule="evenodd" clip-rule="evenodd" d="M56.285 28.0275C57.8811 25.737 59.3149 23.2876 60.8527 20.9405C62.0781 20.9405 63.3038 20.9405 64.5293 20.9405C64.5293 26.5369 64.5293 32.1336 64.5293 37.7304C63.3038 37.7304 62.0781 37.7304 60.8527 37.7304C60.8527 34.2416 60.8527 30.753 60.8527 27.264C59.2844 28.9635 57.97 31.8569 56.1736 33.6966C54.7327 31.4727 53.3246 29.2164 51.7173 27.1554C51.7173 30.6803 51.7173 34.2053 51.7173 37.7306C50.529 37.7306 49.3406 37.7306 48.1524 37.7306C48.1524 32.1337 48.1524 26.5375 48.1524 20.9406C49.5178 21.1948 50.5499 20.5858 51.606 20.9406C52.3752 21.1992 53.5942 23.7066 54.057 24.4298C54.977 25.8678 55.6595 26.9826 56.285 28.0275Z" fill="white"/>
<path fill-rule="evenodd" clip-rule="evenodd" d="M91.8242 20.9404C93.0123 20.9404 94.201 20.9404 95.3889 20.9404C95.3889 23.7389 95.3889 26.5368 95.3889 29.3351C96.8172 28.298 98.2663 26.3362 99.734 24.9745C101.071 24.9745 102.408 24.9745 103.745 24.9745C103.814 25.3764 103.206 25.7987 102.853 26.1741C101.723 27.377 100.201 28.7648 99.0655 29.9897C100.678 32.6271 102.439 35.1193 104.19 37.6214C102.881 37.5767 101.302 38.0704 100.291 37.7306C99.5067 37.4669 98.8855 35.8526 98.3971 35.114C97.7072 34.0715 97.0349 33.2371 96.6145 32.4975C94.9348 32.9979 95.4513 35.6477 95.3887 37.7306C94.2008 37.7306 93.0121 37.7306 91.824 37.7306C91.8242 32.1335 91.8242 26.5371 91.8242 20.9404Z" fill="white"/>
<path fill-rule="evenodd" clip-rule="evenodd" d="M120.567 20.9404C121.756 20.9404 122.944 20.9404 124.132 20.9404C124.132 22.285 124.132 23.6297 124.132 24.9743C125.098 24.9743 126.064 24.9743 127.029 24.9743C127.029 25.9918 127.029 27.0096 127.029 28.0273C126.101 28.0273 125.172 28.0273 124.244 28.0273C124.105 29.8709 123.947 32.6781 124.355 34.3507C125.076 34.9299 126.297 34.5614 127.029 34.2415C127.029 35.1867 127.029 36.1315 127.029 37.0764C126.257 37.3019 125.835 37.6362 125.135 37.7304C119.516 38.4871 120.609 33.0953 120.567 28.1359C120.303 27.8853 119.568 28.097 119.119 28.0274C119.119 27.0098 119.119 25.992 119.119 24.9745C119.602 24.9745 120.085 24.9745 120.567 24.9745C120.567 23.6297 120.567 22.285 120.567 20.9404Z" fill="white"/>
<path fill-rule="evenodd" clip-rule="evenodd" d="M44.587 24.9744C44.587 29.2263 44.587 33.4785 44.587 37.7303C43.4731 37.7303 42.3589 37.7303 41.245 37.7303C41.3191 33.5144 41.0965 29.0086 41.3562 24.9744C42.4332 24.9744 43.51 24.9744 44.587 24.9744Z" fill="white"/>
<path fill-rule="evenodd" clip-rule="evenodd" d="M78.9007 37.7303C77.7121 37.7303 76.5241 37.7303 75.3355 37.7303C75.3355 37.2943 75.3355 36.8581 75.3355 36.422C73.8558 37.7374 70.203 38.4711 68.317 36.7489C66.9068 35.4615 66.7104 32.6516 68.2055 31.1885C69.659 29.7667 72.9175 29.6261 75.3355 30.4255C75.6026 27.1672 71.1182 27.9843 69.0966 28.6813C68.9356 27.6761 68.5031 26.9367 68.3172 25.9558C71.1306 24.7278 75.6666 24.452 77.5638 26.3918C79.8838 28.7646 78.5012 33.4936 78.9007 37.7303ZM70.7677 33.1511C70.3373 36.5941 76.1382 35.5622 75.4469 32.6064C74.1723 31.8359 71.4071 31.835 70.7677 33.1511Z" fill="white"/>
<path fill-rule="evenodd" clip-rule="evenodd" d="M85.5853 24.9744C85.5853 25.7373 85.5853 26.5009 85.5853 27.2639C86.3277 26.3912 87.2472 24.7476 89.4843 24.9744C89.4843 26.174 89.4843 27.3729 89.4843 28.572C84.8504 28.3618 85.564 33.3849 85.5853 37.7303C84.3969 37.7303 83.2087 37.7303 82.0201 37.7303C82.0201 33.4785 82.0201 29.2264 82.0201 24.9744C83.2087 24.9744 84.3968 24.9744 85.5853 24.9744Z" fill="white"/>
<path fill-rule="evenodd" clip-rule="evenodd" d="M117.336 32.6065C114.477 32.6065 111.617 32.6065 108.758 32.6065C108.915 35.388 113.347 35.3636 114.774 33.6964C115.357 34.3614 116.216 34.7561 116.668 35.5499C115.251 37.0303 113.68 38.0117 110.875 37.7304C107.685 37.4109 105.435 35.0978 105.193 32.0609C104.767 26.7166 110.93 22.5967 115.22 26.2831C116.75 27.5978 117.39 29.5534 117.336 32.6065ZM108.758 30.3165C110.466 30.3165 112.175 30.3165 113.883 30.3165C113.905 27.1605 108.716 27.0797 108.758 30.3165Z" fill="white"/>
</svg>
